<mxfile host="app.diagrams.net" modified="2021-11-23T08:32:50.704Z" agent="5.0 (Macintosh; Intel Mac OS X 10_15_7) AppleWebKit/537.36 (KHTML, like Gecko) Chrome/95.0.4638.69 Safari/537.36" etag="o1fiY3wRUE-_XThv51GK" version="15.8.3" type="github">
  <diagram id="xm92QjREcHeRzNhlfidu" name="第 1 页">
    <mxGraphModel dx="946" dy="496" grid="1" gridSize="10" guides="1" tooltips="1" connect="1" arrows="1" fold="1" page="1" pageScale="1" pageWidth="827" pageHeight="1169" math="0" shadow="0">
      <root>
        <mxCell id="0" />
        <mxCell id="1" parent="0" />
        <mxCell id="ieVy2Ef-1YmjKpl5WXtm-2" value="String" style="rounded=1;whiteSpace=wrap;html=1;fillColor=#CCCC00;" parent="1" vertex="1">
          <mxGeometry x="130" y="80" width="100" height="50" as="geometry" />
        </mxCell>
        <mxCell id="ieVy2Ef-1YmjKpl5WXtm-3" value="Set" style="rounded=1;whiteSpace=wrap;html=1;fillColor=#CCCC00;" parent="1" vertex="1">
          <mxGeometry x="642" y="80" width="100" height="50" as="geometry" />
        </mxCell>
        <mxCell id="ieVy2Ef-1YmjKpl5WXtm-4" value="Hash" style="rounded=1;whiteSpace=wrap;html=1;fillColor=#CCCC00;" parent="1" vertex="1">
          <mxGeometry x="390" y="80" width="100" height="50" as="geometry" />
        </mxCell>
        <mxCell id="ieVy2Ef-1YmjKpl5WXtm-5" value="List" style="rounded=1;whiteSpace=wrap;html=1;fillColor=#CCCC00;" parent="1" vertex="1">
          <mxGeometry x="260" y="80" width="100" height="50" as="geometry" />
        </mxCell>
        <mxCell id="ieVy2Ef-1YmjKpl5WXtm-6" value="Sorted Set" style="rounded=1;whiteSpace=wrap;html=1;fillColor=#CCCC00;" parent="1" vertex="1">
          <mxGeometry x="518" y="80" width="100" height="50" as="geometry" />
        </mxCell>
        <mxCell id="ieVy2Ef-1YmjKpl5WXtm-56" value="简单动态字符串" style="rounded=0;whiteSpace=wrap;html=1;fillColor=#FFFF00;" parent="1" vertex="1">
          <mxGeometry x="131" y="190" width="90" height="50" as="geometry" />
        </mxCell>
        <mxCell id="ieVy2Ef-1YmjKpl5WXtm-57" value="双向链表" style="rounded=0;whiteSpace=wrap;html=1;fillColor=#FFFF00;" parent="1" vertex="1">
          <mxGeometry x="263" y="190" width="90" height="50" as="geometry" />
        </mxCell>
        <mxCell id="ieVy2Ef-1YmjKpl5WXtm-58" value="压缩列表" style="rounded=0;whiteSpace=wrap;html=1;fillColor=#FFFF00;" parent="1" vertex="1">
          <mxGeometry x="390" y="190" width="90" height="50" as="geometry" />
        </mxCell>
        <mxCell id="ieVy2Ef-1YmjKpl5WXtm-59" value="跳表" style="rounded=0;whiteSpace=wrap;html=1;fillColor=#FFFF00;" parent="1" vertex="1">
          <mxGeometry x="630" y="190" width="90" height="50" as="geometry" />
        </mxCell>
        <mxCell id="ieVy2Ef-1YmjKpl5WXtm-60" value="数组" style="rounded=0;whiteSpace=wrap;html=1;fillColor=#FFFF00;" parent="1" vertex="1">
          <mxGeometry x="750" y="190" width="90" height="50" as="geometry" />
        </mxCell>
        <mxCell id="ieVy2Ef-1YmjKpl5WXtm-61" value="哈希表" style="rounded=0;whiteSpace=wrap;html=1;fillColor=#FFFF00;" parent="1" vertex="1">
          <mxGeometry x="510" y="190" width="90" height="50" as="geometry" />
        </mxCell>
        <mxCell id="ieVy2Ef-1YmjKpl5WXtm-62" value="" style="endArrow=classic;html=1;rounded=0;exitX=0.5;exitY=1;exitDx=0;exitDy=0;" parent="1" source="ieVy2Ef-1YmjKpl5WXtm-2" edge="1">
          <mxGeometry width="50" height="50" relative="1" as="geometry">
            <mxPoint x="390" y="280" as="sourcePoint" />
            <mxPoint x="180" y="190" as="targetPoint" />
          </mxGeometry>
        </mxCell>
        <mxCell id="ieVy2Ef-1YmjKpl5WXtm-63" value="" style="endArrow=classic;html=1;rounded=0;exitX=0.5;exitY=1;exitDx=0;exitDy=0;" parent="1" source="ieVy2Ef-1YmjKpl5WXtm-5" target="ieVy2Ef-1YmjKpl5WXtm-57" edge="1">
          <mxGeometry width="50" height="50" relative="1" as="geometry">
            <mxPoint x="310" y="180" as="sourcePoint" />
            <mxPoint x="360" y="130" as="targetPoint" />
          </mxGeometry>
        </mxCell>
        <mxCell id="ieVy2Ef-1YmjKpl5WXtm-64" value="" style="endArrow=classic;html=1;rounded=0;entryX=0.5;entryY=0;entryDx=0;entryDy=0;exitX=0.5;exitY=1;exitDx=0;exitDy=0;" parent="1" source="ieVy2Ef-1YmjKpl5WXtm-5" target="ieVy2Ef-1YmjKpl5WXtm-58" edge="1">
          <mxGeometry width="50" height="50" relative="1" as="geometry">
            <mxPoint x="310" y="140" as="sourcePoint" />
            <mxPoint x="400" y="140" as="targetPoint" />
          </mxGeometry>
        </mxCell>
        <mxCell id="ieVy2Ef-1YmjKpl5WXtm-65" value="" style="endArrow=classic;html=1;rounded=0;exitX=0.5;exitY=1;exitDx=0;exitDy=0;" parent="1" source="ieVy2Ef-1YmjKpl5WXtm-4" edge="1">
          <mxGeometry width="50" height="50" relative="1" as="geometry">
            <mxPoint x="390" y="280" as="sourcePoint" />
            <mxPoint x="440" y="190" as="targetPoint" />
          </mxGeometry>
        </mxCell>
        <mxCell id="ieVy2Ef-1YmjKpl5WXtm-66" value="" style="endArrow=classic;html=1;rounded=0;exitX=0.5;exitY=1;exitDx=0;exitDy=0;entryX=0.5;entryY=0;entryDx=0;entryDy=0;" parent="1" source="ieVy2Ef-1YmjKpl5WXtm-4" target="ieVy2Ef-1YmjKpl5WXtm-61" edge="1">
          <mxGeometry width="50" height="50" relative="1" as="geometry">
            <mxPoint x="554.5" y="140" as="sourcePoint" />
            <mxPoint x="554.5" y="200" as="targetPoint" />
          </mxGeometry>
        </mxCell>
        <mxCell id="ieVy2Ef-1YmjKpl5WXtm-67" value="" style="endArrow=classic;html=1;rounded=0;exitX=0.5;exitY=1;exitDx=0;exitDy=0;entryX=0.5;entryY=0;entryDx=0;entryDy=0;" parent="1" edge="1">
          <mxGeometry width="50" height="50" relative="1" as="geometry">
            <mxPoint x="570" y="130" as="sourcePoint" />
            <mxPoint x="685" y="190" as="targetPoint" />
          </mxGeometry>
        </mxCell>
        <mxCell id="ieVy2Ef-1YmjKpl5WXtm-68" value="" style="endArrow=classic;html=1;rounded=0;exitX=0.5;exitY=1;exitDx=0;exitDy=0;" parent="1" source="ieVy2Ef-1YmjKpl5WXtm-6" edge="1">
          <mxGeometry width="50" height="50" relative="1" as="geometry">
            <mxPoint x="450" y="140" as="sourcePoint" />
            <mxPoint x="450" y="190" as="targetPoint" />
          </mxGeometry>
        </mxCell>
        <mxCell id="ieVy2Ef-1YmjKpl5WXtm-69" value="" style="endArrow=classic;html=1;rounded=0;exitX=0.5;exitY=1;exitDx=0;exitDy=0;entryX=0.5;entryY=0;entryDx=0;entryDy=0;" parent="1" edge="1">
          <mxGeometry width="50" height="50" relative="1" as="geometry">
            <mxPoint x="690" y="130" as="sourcePoint" />
            <mxPoint x="805" y="190" as="targetPoint" />
          </mxGeometry>
        </mxCell>
        <mxCell id="ieVy2Ef-1YmjKpl5WXtm-70" value="" style="endArrow=classic;html=1;rounded=0;" parent="1" edge="1">
          <mxGeometry width="50" height="50" relative="1" as="geometry">
            <mxPoint x="688" y="130" as="sourcePoint" />
            <mxPoint x="560" y="190" as="targetPoint" />
          </mxGeometry>
        </mxCell>
        <mxCell id="ieVy2Ef-1YmjKpl5WXtm-72" value="redis数据类型与底层数据结构" style="text;html=1;resizable=0;autosize=1;align=center;verticalAlign=middle;points=[];fillColor=none;strokeColor=none;rounded=0;fontStyle=1;fontSize=29;" parent="1" vertex="1">
          <mxGeometry x="214" y="20" width="400" height="40" as="geometry" />
        </mxCell>
        <mxCell id="ieVy2Ef-1YmjKpl5WXtm-74" value="redis键值对-全局哈希表" style="text;html=1;resizable=0;autosize=1;align=center;verticalAlign=middle;points=[];fillColor=none;strokeColor=none;rounded=0;fontStyle=1;fontSize=29;" parent="1" vertex="1">
          <mxGeometry x="232" y="320" width="330" height="40" as="geometry" />
        </mxCell>
        <mxCell id="ieVy2Ef-1YmjKpl5WXtm-76" value="" style="rounded=0;whiteSpace=wrap;html=1;fontSize=29;fillColor=#E6FFCC;" parent="1" vertex="1">
          <mxGeometry x="110" y="370" width="710" height="390" as="geometry" />
        </mxCell>
        <mxCell id="ieVy2Ef-1YmjKpl5WXtm-78" value="全局哈希表" style="text;html=1;resizable=0;autosize=1;align=center;verticalAlign=middle;points=[];fillColor=none;strokeColor=none;rounded=0;fontSize=29;" parent="1" vertex="1">
          <mxGeometry x="370" y="390" width="160" height="40" as="geometry" />
        </mxCell>
        <mxCell id="ieVy2Ef-1YmjKpl5WXtm-79" value="全局哈希表" style="rounded=0;whiteSpace=wrap;html=1;fontSize=18;fillColor=#FFE6CC;" parent="1" vertex="1">
          <mxGeometry x="132" y="542.5" width="100" height="45" as="geometry" />
        </mxCell>
        <mxCell id="ieVy2Ef-1YmjKpl5WXtm-81" value="" style="endArrow=classic;html=1;rounded=0;fontSize=18;exitX=1;exitY=0.5;exitDx=0;exitDy=0;entryX=0.254;entryY=0.5;entryDx=0;entryDy=0;entryPerimeter=0;" parent="1" source="ieVy2Ef-1YmjKpl5WXtm-79" target="ieVy2Ef-1YmjKpl5WXtm-76" edge="1">
          <mxGeometry width="50" height="50" relative="1" as="geometry">
            <mxPoint x="380" y="530" as="sourcePoint" />
            <mxPoint x="430" y="480" as="targetPoint" />
          </mxGeometry>
        </mxCell>
        <mxCell id="ieVy2Ef-1YmjKpl5WXtm-89" value="" style="shape=table;startSize=0;container=1;collapsible=0;childLayout=tableLayout;fontSize=18;fillColor=#FFCC99;" parent="1" vertex="1">
          <mxGeometry x="280" y="547.5" width="180" height="40" as="geometry" />
        </mxCell>
        <mxCell id="ieVy2Ef-1YmjKpl5WXtm-90" value="" style="shape=partialRectangle;collapsible=0;dropTarget=0;pointerEvents=0;fillColor=none;top=0;left=0;bottom=0;right=0;points=[[0,0.5],[1,0.5]];portConstraint=eastwest;fontSize=18;" parent="ieVy2Ef-1YmjKpl5WXtm-89" vertex="1">
          <mxGeometry width="180" height="40" as="geometry" />
        </mxCell>
        <mxCell id="ieVy2Ef-1YmjKpl5WXtm-91" value="0" style="shape=partialRectangle;html=1;whiteSpace=wrap;connectable=0;overflow=hidden;fillColor=none;top=0;left=0;bottom=0;right=0;pointerEvents=1;fontSize=18;" parent="ieVy2Ef-1YmjKpl5WXtm-90" vertex="1">
          <mxGeometry width="60" height="40" as="geometry">
            <mxRectangle width="60" height="40" as="alternateBounds" />
          </mxGeometry>
        </mxCell>
        <mxCell id="ieVy2Ef-1YmjKpl5WXtm-92" value="1" style="shape=partialRectangle;html=1;whiteSpace=wrap;connectable=0;overflow=hidden;fillColor=none;top=0;left=0;bottom=0;right=0;pointerEvents=1;fontSize=18;" parent="ieVy2Ef-1YmjKpl5WXtm-90" vertex="1">
          <mxGeometry x="60" width="60" height="40" as="geometry">
            <mxRectangle width="60" height="40" as="alternateBounds" />
          </mxGeometry>
        </mxCell>
        <mxCell id="ieVy2Ef-1YmjKpl5WXtm-93" value="2" style="shape=partialRectangle;html=1;whiteSpace=wrap;connectable=0;overflow=hidden;fillColor=none;top=0;left=0;bottom=0;right=0;pointerEvents=1;fontSize=18;" parent="ieVy2Ef-1YmjKpl5WXtm-90" vertex="1">
          <mxGeometry x="120" width="60" height="40" as="geometry">
            <mxRectangle width="60" height="40" as="alternateBounds" />
          </mxGeometry>
        </mxCell>
        <mxCell id="ieVy2Ef-1YmjKpl5WXtm-94" value="entry" style="rounded=0;whiteSpace=wrap;html=1;fontSize=18;fillColor=#FFCC99;" parent="1" vertex="1">
          <mxGeometry x="280" y="650" width="60" height="30" as="geometry" />
        </mxCell>
        <mxCell id="ieVy2Ef-1YmjKpl5WXtm-97" value="entry" style="rounded=0;whiteSpace=wrap;html=1;fontSize=18;fillColor=#FFCC99;" parent="1" vertex="1">
          <mxGeometry x="400" y="650" width="60" height="30" as="geometry" />
        </mxCell>
        <mxCell id="ieVy2Ef-1YmjKpl5WXtm-98" value="" style="endArrow=classic;html=1;rounded=0;fontSize=18;entryX=0.5;entryY=0;entryDx=0;entryDy=0;" parent="1" edge="1">
          <mxGeometry width="50" height="50" relative="1" as="geometry">
            <mxPoint x="310" y="588" as="sourcePoint" />
            <mxPoint x="310" y="648" as="targetPoint" />
          </mxGeometry>
        </mxCell>
        <mxCell id="ieVy2Ef-1YmjKpl5WXtm-99" value="" style="endArrow=classic;html=1;rounded=0;fontSize=18;entryX=0.5;entryY=0;entryDx=0;entryDy=0;" parent="1" edge="1">
          <mxGeometry width="50" height="50" relative="1" as="geometry">
            <mxPoint x="429.5" y="587.5" as="sourcePoint" />
            <mxPoint x="429.5" y="647.5" as="targetPoint" />
          </mxGeometry>
        </mxCell>
        <mxCell id="ieVy2Ef-1YmjKpl5WXtm-102" value="" style="endArrow=classic;html=1;rounded=0;fontSize=18;exitX=1;exitY=0.5;exitDx=0;exitDy=0;entryX=0;entryY=0.5;entryDx=0;entryDy=0;" parent="1" source="ieVy2Ef-1YmjKpl5WXtm-97" edge="1">
          <mxGeometry width="50" height="50" relative="1" as="geometry">
            <mxPoint x="480" y="690" as="sourcePoint" />
            <mxPoint x="560" y="465" as="targetPoint" />
            <Array as="points">
              <mxPoint x="500" y="665" />
              <mxPoint x="500" y="465" />
            </Array>
          </mxGeometry>
        </mxCell>
        <mxCell id="ieVy2Ef-1YmjKpl5WXtm-103" value="" style="shape=table;startSize=0;container=1;collapsible=0;childLayout=tableLayout;fontSize=18;fillColor=#FFCC99;" parent="1" vertex="1">
          <mxGeometry x="560" y="425" width="60" height="80" as="geometry" />
        </mxCell>
        <mxCell id="ieVy2Ef-1YmjKpl5WXtm-104" value="" style="shape=partialRectangle;collapsible=0;dropTarget=0;pointerEvents=0;fillColor=none;top=0;left=0;bottom=0;right=0;points=[[0,0.5],[1,0.5]];portConstraint=eastwest;fontSize=18;" parent="ieVy2Ef-1YmjKpl5WXtm-103" vertex="1">
          <mxGeometry width="60" height="40" as="geometry" />
        </mxCell>
        <mxCell id="ieVy2Ef-1YmjKpl5WXtm-105" value="key" style="shape=partialRectangle;html=1;whiteSpace=wrap;connectable=0;overflow=hidden;fillColor=none;top=0;left=0;bottom=0;right=0;pointerEvents=1;fontSize=18;" parent="ieVy2Ef-1YmjKpl5WXtm-104" vertex="1">
          <mxGeometry width="60" height="40" as="geometry">
            <mxRectangle width="60" height="40" as="alternateBounds" />
          </mxGeometry>
        </mxCell>
        <mxCell id="ieVy2Ef-1YmjKpl5WXtm-106" value="" style="shape=partialRectangle;collapsible=0;dropTarget=0;pointerEvents=0;fillColor=none;top=0;left=0;bottom=0;right=0;points=[[0,0.5],[1,0.5]];portConstraint=eastwest;fontSize=18;" parent="ieVy2Ef-1YmjKpl5WXtm-103" vertex="1">
          <mxGeometry y="40" width="60" height="40" as="geometry" />
        </mxCell>
        <mxCell id="ieVy2Ef-1YmjKpl5WXtm-107" value="value" style="shape=partialRectangle;html=1;whiteSpace=wrap;connectable=0;overflow=hidden;fillColor=none;top=0;left=0;bottom=0;right=0;pointerEvents=1;fontSize=18;" parent="ieVy2Ef-1YmjKpl5WXtm-106" vertex="1">
          <mxGeometry width="60" height="40" as="geometry">
            <mxRectangle width="60" height="40" as="alternateBounds" />
          </mxGeometry>
        </mxCell>
        <mxCell id="ieVy2Ef-1YmjKpl5WXtm-108" value="String" style="rounded=0;whiteSpace=wrap;html=1;fontSize=18;fillColor=#FFE6CC;" parent="1" vertex="1">
          <mxGeometry x="683" y="427" width="70" height="45" as="geometry" />
        </mxCell>
        <mxCell id="ieVy2Ef-1YmjKpl5WXtm-120" value="" style="endArrow=classic;html=1;rounded=0;fontSize=18;entryX=0;entryY=0.5;entryDx=0;entryDy=0;" parent="1" edge="1">
          <mxGeometry width="50" height="50" relative="1" as="geometry">
            <mxPoint x="620" y="451" as="sourcePoint" />
            <mxPoint x="683" y="450.5" as="targetPoint" />
          </mxGeometry>
        </mxCell>
        <mxCell id="ieVy2Ef-1YmjKpl5WXtm-121" value="" style="endArrow=classic;html=1;rounded=0;fontSize=18;exitX=1;exitY=0.5;exitDx=0;exitDy=0;entryX=0.01;entryY=0.538;entryDx=0;entryDy=0;entryPerimeter=0;" parent="1" source="ieVy2Ef-1YmjKpl5WXtm-106" target="ieVy2Ef-1YmjKpl5WXtm-122" edge="1">
          <mxGeometry width="50" height="50" relative="1" as="geometry">
            <mxPoint x="630" y="530" as="sourcePoint" />
            <mxPoint x="680" y="480" as="targetPoint" />
            <Array as="points">
              <mxPoint x="650" y="485" />
              <mxPoint x="650" y="652" />
            </Array>
          </mxGeometry>
        </mxCell>
        <mxCell id="ieVy2Ef-1YmjKpl5WXtm-122" value="" style="rounded=0;whiteSpace=wrap;html=1;fontSize=18;fillColor=#E6FFCC;" parent="1" vertex="1">
          <mxGeometry x="670" y="529.5" width="90" height="227.5" as="geometry" />
        </mxCell>
        <mxCell id="ieVy2Ef-1YmjKpl5WXtm-109" value="" style="shape=table;startSize=0;container=1;collapsible=0;childLayout=tableLayout;fontSize=18;fillColor=#FFE6CC;" parent="1" vertex="1">
          <mxGeometry x="680" y="538.25" width="70" height="210" as="geometry" />
        </mxCell>
        <mxCell id="ieVy2Ef-1YmjKpl5WXtm-110" value="" style="shape=partialRectangle;collapsible=0;dropTarget=0;pointerEvents=0;fillColor=none;top=0;left=0;bottom=0;right=0;points=[[0,0.5],[1,0.5]];portConstraint=eastwest;fontSize=18;" parent="ieVy2Ef-1YmjKpl5WXtm-109" vertex="1">
          <mxGeometry width="70" height="42" as="geometry" />
        </mxCell>
        <mxCell id="ieVy2Ef-1YmjKpl5WXtm-111" value="String" style="shape=partialRectangle;html=1;whiteSpace=wrap;connectable=0;overflow=hidden;fillColor=none;top=0;left=0;bottom=0;right=0;pointerEvents=1;fontSize=18;" parent="ieVy2Ef-1YmjKpl5WXtm-110" vertex="1">
          <mxGeometry width="70" height="42" as="geometry">
            <mxRectangle width="70" height="42" as="alternateBounds" />
          </mxGeometry>
        </mxCell>
        <mxCell id="ieVy2Ef-1YmjKpl5WXtm-112" value="" style="shape=partialRectangle;collapsible=0;dropTarget=0;pointerEvents=0;fillColor=none;top=0;left=0;bottom=0;right=0;points=[[0,0.5],[1,0.5]];portConstraint=eastwest;fontSize=18;" parent="ieVy2Ef-1YmjKpl5WXtm-109" vertex="1">
          <mxGeometry y="42" width="70" height="43" as="geometry" />
        </mxCell>
        <mxCell id="ieVy2Ef-1YmjKpl5WXtm-113" value="List" style="shape=partialRectangle;html=1;whiteSpace=wrap;connectable=0;overflow=hidden;fillColor=none;top=0;left=0;bottom=0;right=0;pointerEvents=1;fontSize=18;" parent="ieVy2Ef-1YmjKpl5WXtm-112" vertex="1">
          <mxGeometry width="70" height="43" as="geometry">
            <mxRectangle width="70" height="43" as="alternateBounds" />
          </mxGeometry>
        </mxCell>
        <mxCell id="ieVy2Ef-1YmjKpl5WXtm-114" value="" style="shape=partialRectangle;collapsible=0;dropTarget=0;pointerEvents=0;fillColor=none;top=0;left=0;bottom=0;right=0;points=[[0,0.5],[1,0.5]];portConstraint=eastwest;fontSize=18;" parent="ieVy2Ef-1YmjKpl5WXtm-109" vertex="1">
          <mxGeometry y="85" width="70" height="41" as="geometry" />
        </mxCell>
        <mxCell id="ieVy2Ef-1YmjKpl5WXtm-115" value="Hash" style="shape=partialRectangle;html=1;whiteSpace=wrap;connectable=0;overflow=hidden;fillColor=none;top=0;left=0;bottom=0;right=0;pointerEvents=1;fontSize=18;" parent="ieVy2Ef-1YmjKpl5WXtm-114" vertex="1">
          <mxGeometry width="70" height="41" as="geometry">
            <mxRectangle width="70" height="41" as="alternateBounds" />
          </mxGeometry>
        </mxCell>
        <mxCell id="ieVy2Ef-1YmjKpl5WXtm-116" value="" style="shape=partialRectangle;collapsible=0;dropTarget=0;pointerEvents=0;fillColor=none;top=0;left=0;bottom=0;right=0;points=[[0,0.5],[1,0.5]];portConstraint=eastwest;fontSize=18;" parent="ieVy2Ef-1YmjKpl5WXtm-109" vertex="1">
          <mxGeometry y="126" width="70" height="42" as="geometry" />
        </mxCell>
        <mxCell id="ieVy2Ef-1YmjKpl5WXtm-117" value="Sorted Set" style="shape=partialRectangle;html=1;whiteSpace=wrap;connectable=0;overflow=hidden;fillColor=none;top=0;left=0;bottom=0;right=0;pointerEvents=1;fontSize=18;" parent="ieVy2Ef-1YmjKpl5WXtm-116" vertex="1">
          <mxGeometry width="70" height="42" as="geometry">
            <mxRectangle width="70" height="42" as="alternateBounds" />
          </mxGeometry>
        </mxCell>
        <mxCell id="ieVy2Ef-1YmjKpl5WXtm-118" value="" style="shape=partialRectangle;collapsible=0;dropTarget=0;pointerEvents=0;fillColor=none;top=0;left=0;bottom=0;right=0;points=[[0,0.5],[1,0.5]];portConstraint=eastwest;fontSize=18;" parent="ieVy2Ef-1YmjKpl5WXtm-109" vertex="1">
          <mxGeometry y="168" width="70" height="42" as="geometry" />
        </mxCell>
        <mxCell id="ieVy2Ef-1YmjKpl5WXtm-119" value="Set" style="shape=partialRectangle;html=1;whiteSpace=wrap;connectable=0;overflow=hidden;fillColor=none;top=0;left=0;bottom=0;right=0;pointerEvents=1;fontSize=18;" parent="ieVy2Ef-1YmjKpl5WXtm-118" vertex="1">
          <mxGeometry width="70" height="42" as="geometry">
            <mxRectangle width="70" height="42" as="alternateBounds" />
          </mxGeometry>
        </mxCell>
        <mxCell id="ieVy2Ef-1YmjKpl5WXtm-123" value="哈希桶" style="text;html=1;resizable=0;autosize=1;align=center;verticalAlign=middle;points=[];fillColor=none;strokeColor=none;rounded=0;fontSize=18;" parent="1" vertex="1">
          <mxGeometry x="344" y="505" width="70" height="30" as="geometry" />
        </mxCell>
        <mxCell id="ieVy2Ef-1YmjKpl5WXtm-124" value="entry" style="text;html=1;resizable=0;autosize=1;align=center;verticalAlign=middle;points=[];fillColor=none;strokeColor=none;rounded=0;fontSize=18;" parent="1" vertex="1">
          <mxGeometry x="561" y="390" width="60" height="30" as="geometry" />
        </mxCell>
        <mxCell id="ieVy2Ef-1YmjKpl5WXtm-125" value="value" style="text;html=1;resizable=0;autosize=1;align=center;verticalAlign=middle;points=[];fillColor=none;strokeColor=none;rounded=0;fontSize=18;" parent="1" vertex="1">
          <mxGeometry x="688" y="490" width="60" height="30" as="geometry" />
        </mxCell>
        <mxCell id="ieVy2Ef-1YmjKpl5WXtm-126" value="key" style="text;html=1;resizable=0;autosize=1;align=center;verticalAlign=middle;points=[];fillColor=none;strokeColor=none;rounded=0;fontSize=18;" parent="1" vertex="1">
          <mxGeometry x="695" y="390" width="40" height="30" as="geometry" />
        </mxCell>
        <mxCell id="TX7STuWcXEx8gcCeR0AW-1" value="redis哈希冲突" style="text;html=1;resizable=0;autosize=1;align=center;verticalAlign=middle;points=[];fillColor=none;strokeColor=none;rounded=0;fontStyle=1;fontSize=29;" vertex="1" parent="1">
          <mxGeometry x="263" y="880" width="200" height="40" as="geometry" />
        </mxCell>
        <mxCell id="TX7STuWcXEx8gcCeR0AW-8" value="" style="rounded=0;whiteSpace=wrap;html=1;fontSize=29;fillColor=#E6FFCC;" vertex="1" parent="1">
          <mxGeometry x="110" y="950" width="460" height="280" as="geometry" />
        </mxCell>
        <mxCell id="TX7STuWcXEx8gcCeR0AW-10" value="全局哈希表" style="rounded=0;whiteSpace=wrap;html=1;fontSize=18;fillColor=#FFE6CC;" vertex="1" parent="1">
          <mxGeometry x="121" y="960" width="100" height="45" as="geometry" />
        </mxCell>
        <mxCell id="TX7STuWcXEx8gcCeR0AW-11" value="" style="shape=table;startSize=0;container=1;collapsible=0;childLayout=tableLayout;fontSize=18;fillColor=#FFCC99;" vertex="1" parent="1">
          <mxGeometry x="280" y="965" width="180" height="40" as="geometry" />
        </mxCell>
        <mxCell id="TX7STuWcXEx8gcCeR0AW-12" value="" style="shape=partialRectangle;collapsible=0;dropTarget=0;pointerEvents=0;fillColor=none;top=0;left=0;bottom=0;right=0;points=[[0,0.5],[1,0.5]];portConstraint=eastwest;fontSize=18;" vertex="1" parent="TX7STuWcXEx8gcCeR0AW-11">
          <mxGeometry width="180" height="40" as="geometry" />
        </mxCell>
        <mxCell id="TX7STuWcXEx8gcCeR0AW-13" value="0" style="shape=partialRectangle;html=1;whiteSpace=wrap;connectable=0;overflow=hidden;fillColor=none;top=0;left=0;bottom=0;right=0;pointerEvents=1;fontSize=18;" vertex="1" parent="TX7STuWcXEx8gcCeR0AW-12">
          <mxGeometry width="60" height="40" as="geometry">
            <mxRectangle width="60" height="40" as="alternateBounds" />
          </mxGeometry>
        </mxCell>
        <mxCell id="TX7STuWcXEx8gcCeR0AW-14" value="1" style="shape=partialRectangle;html=1;whiteSpace=wrap;connectable=0;overflow=hidden;fillColor=none;top=0;left=0;bottom=0;right=0;pointerEvents=1;fontSize=18;" vertex="1" parent="TX7STuWcXEx8gcCeR0AW-12">
          <mxGeometry x="60" width="60" height="40" as="geometry">
            <mxRectangle width="60" height="40" as="alternateBounds" />
          </mxGeometry>
        </mxCell>
        <mxCell id="TX7STuWcXEx8gcCeR0AW-15" value="2" style="shape=partialRectangle;html=1;whiteSpace=wrap;connectable=0;overflow=hidden;fillColor=none;top=0;left=0;bottom=0;right=0;pointerEvents=1;fontSize=18;" vertex="1" parent="TX7STuWcXEx8gcCeR0AW-12">
          <mxGeometry x="120" width="60" height="40" as="geometry">
            <mxRectangle width="60" height="40" as="alternateBounds" />
          </mxGeometry>
        </mxCell>
        <mxCell id="TX7STuWcXEx8gcCeR0AW-16" value="&lt;font style=&quot;font-size: 15px&quot;&gt;*key&lt;br&gt;*value&lt;br&gt;*next&lt;/font&gt;" style="rounded=0;whiteSpace=wrap;html=1;fontSize=18;fillColor=#FFCC99;" vertex="1" parent="1">
          <mxGeometry x="280" y="1051" width="70" height="62" as="geometry" />
        </mxCell>
        <mxCell id="TX7STuWcXEx8gcCeR0AW-18" value="" style="endArrow=classic;html=1;rounded=0;fontSize=18;" edge="1" parent="1">
          <mxGeometry width="50" height="50" relative="1" as="geometry">
            <mxPoint x="310" y="1006" as="sourcePoint" />
            <mxPoint x="310" y="1050" as="targetPoint" />
          </mxGeometry>
        </mxCell>
        <mxCell id="TX7STuWcXEx8gcCeR0AW-19" value="" style="endArrow=classic;html=1;rounded=0;fontSize=18;entryX=0.5;entryY=0;entryDx=0;entryDy=0;exitX=0.833;exitY=1.025;exitDx=0;exitDy=0;exitPerimeter=0;" edge="1" parent="1" source="TX7STuWcXEx8gcCeR0AW-12">
          <mxGeometry width="50" height="50" relative="1" as="geometry">
            <mxPoint x="430" y="1010" as="sourcePoint" />
            <mxPoint x="429.5" y="1050" as="targetPoint" />
          </mxGeometry>
        </mxCell>
        <mxCell id="TX7STuWcXEx8gcCeR0AW-27" value="&lt;span style=&quot;font-size: 18px&quot;&gt;entry1&lt;/span&gt;" style="text;html=1;resizable=0;autosize=1;align=center;verticalAlign=middle;points=[];fillColor=none;strokeColor=none;rounded=0;" vertex="1" parent="1">
          <mxGeometry x="191" y="1064" width="70" height="20" as="geometry" />
        </mxCell>
        <mxCell id="TX7STuWcXEx8gcCeR0AW-28" value="&lt;font style=&quot;font-size: 15px&quot;&gt;*key&lt;br&gt;*value&lt;br&gt;*next&lt;/font&gt;" style="rounded=0;whiteSpace=wrap;html=1;fontSize=18;fillColor=#FFCC99;" vertex="1" parent="1">
          <mxGeometry x="395" y="1052" width="70" height="62" as="geometry" />
        </mxCell>
        <mxCell id="TX7STuWcXEx8gcCeR0AW-29" value="&lt;font style=&quot;font-size: 15px&quot;&gt;*key&lt;br&gt;*value&lt;br&gt;*next&lt;/font&gt;" style="rounded=0;whiteSpace=wrap;html=1;fontSize=18;fillColor=#FFCC99;" vertex="1" parent="1">
          <mxGeometry x="278" y="1155" width="70" height="62" as="geometry" />
        </mxCell>
        <mxCell id="TX7STuWcXEx8gcCeR0AW-31" value="" style="endArrow=classic;html=1;rounded=0;fontSize=18;entryX=0.5;entryY=0;entryDx=0;entryDy=0;" edge="1" parent="1">
          <mxGeometry width="50" height="50" relative="1" as="geometry">
            <mxPoint x="310" y="1114" as="sourcePoint" />
            <mxPoint x="309.5" y="1154" as="targetPoint" />
            <Array as="points">
              <mxPoint x="310" y="1114" />
            </Array>
          </mxGeometry>
        </mxCell>
        <mxCell id="TX7STuWcXEx8gcCeR0AW-32" value="&lt;span style=&quot;font-size: 18px&quot;&gt;entry3&lt;/span&gt;" style="text;html=1;resizable=0;autosize=1;align=center;verticalAlign=middle;points=[];fillColor=none;strokeColor=none;rounded=0;" vertex="1" parent="1">
          <mxGeometry x="472" y="1071" width="70" height="20" as="geometry" />
        </mxCell>
        <mxCell id="TX7STuWcXEx8gcCeR0AW-33" value="&lt;span style=&quot;font-size: 18px&quot;&gt;entry3&lt;/span&gt;" style="text;html=1;resizable=0;autosize=1;align=center;verticalAlign=middle;points=[];fillColor=none;strokeColor=none;rounded=0;" vertex="1" parent="1">
          <mxGeometry x="185" y="1176" width="70" height="20" as="geometry" />
        </mxCell>
        <mxCell id="TX7STuWcXEx8gcCeR0AW-35" value="" style="endArrow=classic;startArrow=classic;html=1;rounded=0;entryX=0;entryY=0.5;entryDx=0;entryDy=0;exitX=0;exitY=0.5;exitDx=0;exitDy=0;" edge="1" parent="1">
          <mxGeometry width="50" height="50" relative="1" as="geometry">
            <mxPoint x="276" y="1186" as="sourcePoint" />
            <mxPoint x="278" y="1082" as="targetPoint" />
            <Array as="points">
              <mxPoint x="228" y="1123" />
            </Array>
          </mxGeometry>
        </mxCell>
        <mxCell id="TX7STuWcXEx8gcCeR0AW-36" value="链表解决哈希冲突" style="rounded=0;whiteSpace=wrap;html=1;fontSize=18;fillColor=#FFE6CC;" vertex="1" parent="1">
          <mxGeometry x="121" y="1103" width="100" height="45" as="geometry" />
        </mxCell>
        <mxCell id="TX7STuWcXEx8gcCeR0AW-38" value="redis扩容" style="text;html=1;resizable=0;autosize=1;align=center;verticalAlign=middle;points=[];fillColor=none;strokeColor=none;rounded=0;fontStyle=1;fontSize=29;" vertex="1" parent="1">
          <mxGeometry x="295" y="1288" width="140" height="40" as="geometry" />
        </mxCell>
        <mxCell id="TX7STuWcXEx8gcCeR0AW-39" value="" style="rounded=0;whiteSpace=wrap;html=1;fontSize=29;fillColor=#E6FFCC;" vertex="1" parent="1">
          <mxGeometry x="110" y="1330" width="600" height="340" as="geometry" />
        </mxCell>
        <mxCell id="TX7STuWcXEx8gcCeR0AW-40" value="全局哈希表1" style="rounded=0;whiteSpace=wrap;html=1;fontSize=18;fillColor=#FFE6CC;" vertex="1" parent="1">
          <mxGeometry x="121" y="1340" width="109" height="45" as="geometry" />
        </mxCell>
        <mxCell id="TX7STuWcXEx8gcCeR0AW-41" value="" style="shape=table;startSize=0;container=1;collapsible=0;childLayout=tableLayout;fontSize=18;fillColor=#FFCC99;" vertex="1" parent="1">
          <mxGeometry x="280" y="1345" width="180" height="40" as="geometry" />
        </mxCell>
        <mxCell id="TX7STuWcXEx8gcCeR0AW-42" value="" style="shape=partialRectangle;collapsible=0;dropTarget=0;pointerEvents=0;fillColor=none;top=0;left=0;bottom=0;right=0;points=[[0,0.5],[1,0.5]];portConstraint=eastwest;fontSize=18;" vertex="1" parent="TX7STuWcXEx8gcCeR0AW-41">
          <mxGeometry width="180" height="40" as="geometry" />
        </mxCell>
        <mxCell id="TX7STuWcXEx8gcCeR0AW-43" value="0" style="shape=partialRectangle;html=1;whiteSpace=wrap;connectable=0;overflow=hidden;fillColor=none;top=0;left=0;bottom=0;right=0;pointerEvents=1;fontSize=18;" vertex="1" parent="TX7STuWcXEx8gcCeR0AW-42">
          <mxGeometry width="60" height="40" as="geometry">
            <mxRectangle width="60" height="40" as="alternateBounds" />
          </mxGeometry>
        </mxCell>
        <mxCell id="TX7STuWcXEx8gcCeR0AW-44" value="1" style="shape=partialRectangle;html=1;whiteSpace=wrap;connectable=0;overflow=hidden;fillColor=none;top=0;left=0;bottom=0;right=0;pointerEvents=1;fontSize=18;" vertex="1" parent="TX7STuWcXEx8gcCeR0AW-42">
          <mxGeometry x="60" width="60" height="40" as="geometry">
            <mxRectangle width="60" height="40" as="alternateBounds" />
          </mxGeometry>
        </mxCell>
        <mxCell id="TX7STuWcXEx8gcCeR0AW-45" value="2" style="shape=partialRectangle;html=1;whiteSpace=wrap;connectable=0;overflow=hidden;fillColor=none;top=0;left=0;bottom=0;right=0;pointerEvents=1;fontSize=18;" vertex="1" parent="TX7STuWcXEx8gcCeR0AW-42">
          <mxGeometry x="120" width="60" height="40" as="geometry">
            <mxRectangle width="60" height="40" as="alternateBounds" />
          </mxGeometry>
        </mxCell>
        <mxCell id="TX7STuWcXEx8gcCeR0AW-46" value="&lt;span&gt;entry1&lt;/span&gt;" style="rounded=0;whiteSpace=wrap;html=1;fontSize=18;fillColor=#FFCC99;" vertex="1" parent="1">
          <mxGeometry x="280" y="1410" width="60" height="29" as="geometry" />
        </mxCell>
        <mxCell id="TX7STuWcXEx8gcCeR0AW-53" value="&lt;span&gt;entry3&lt;/span&gt;" style="rounded=0;whiteSpace=wrap;html=1;fontSize=18;fillColor=#FFCC99;" vertex="1" parent="1">
          <mxGeometry x="280" y="1469" width="60" height="29" as="geometry" />
        </mxCell>
        <mxCell id="TX7STuWcXEx8gcCeR0AW-54" value="&lt;span&gt;entry2&lt;/span&gt;" style="rounded=0;whiteSpace=wrap;html=1;fontSize=18;fillColor=#FFCC99;" vertex="1" parent="1">
          <mxGeometry x="280" y="1440" width="60" height="29" as="geometry" />
        </mxCell>
        <mxCell id="TX7STuWcXEx8gcCeR0AW-55" value="&lt;span&gt;entry4&lt;/span&gt;" style="rounded=0;whiteSpace=wrap;html=1;fontSize=18;fillColor=#FFCC99;" vertex="1" parent="1">
          <mxGeometry x="403" y="1410" width="62.07" height="30" as="geometry" />
        </mxCell>
        <mxCell id="TX7STuWcXEx8gcCeR0AW-56" value="" style="endArrow=classic;html=1;rounded=0;fontSize=15;exitX=0.167;exitY=1.025;exitDx=0;exitDy=0;exitPerimeter=0;" edge="1" parent="1" source="TX7STuWcXEx8gcCeR0AW-42">
          <mxGeometry width="50" height="50" relative="1" as="geometry">
            <mxPoint x="260" y="1470" as="sourcePoint" />
            <mxPoint x="310" y="1410" as="targetPoint" />
          </mxGeometry>
        </mxCell>
        <mxCell id="TX7STuWcXEx8gcCeR0AW-57" value="" style="endArrow=classic;html=1;rounded=0;fontSize=15;exitX=0.167;exitY=1.025;exitDx=0;exitDy=0;exitPerimeter=0;" edge="1" parent="1">
          <mxGeometry width="50" height="50" relative="1" as="geometry">
            <mxPoint x="432.55999999999995" y="1385" as="sourcePoint" />
            <mxPoint x="433" y="1410" as="targetPoint" />
          </mxGeometry>
        </mxCell>
        <mxCell id="TX7STuWcXEx8gcCeR0AW-65" value="全局哈希表1" style="rounded=0;whiteSpace=wrap;html=1;fontSize=18;fillColor=#FFE6CC;" vertex="1" parent="1">
          <mxGeometry x="121.5" y="1530" width="109" height="45" as="geometry" />
        </mxCell>
        <mxCell id="TX7STuWcXEx8gcCeR0AW-66" value="" style="shape=table;startSize=0;container=1;collapsible=0;childLayout=tableLayout;fontSize=18;fillColor=#FFCC99;" vertex="1" parent="1">
          <mxGeometry x="270" y="1535" width="360" height="40" as="geometry" />
        </mxCell>
        <mxCell id="TX7STuWcXEx8gcCeR0AW-67" value="" style="shape=partialRectangle;collapsible=0;dropTarget=0;pointerEvents=0;fillColor=none;top=0;left=0;bottom=0;right=0;points=[[0,0.5],[1,0.5]];portConstraint=eastwest;fontSize=18;" vertex="1" parent="TX7STuWcXEx8gcCeR0AW-66">
          <mxGeometry width="360" height="40" as="geometry" />
        </mxCell>
        <mxCell id="TX7STuWcXEx8gcCeR0AW-68" value="0" style="shape=partialRectangle;html=1;whiteSpace=wrap;connectable=0;overflow=hidden;fillColor=none;top=0;left=0;bottom=0;right=0;pointerEvents=1;fontSize=18;" vertex="1" parent="TX7STuWcXEx8gcCeR0AW-67">
          <mxGeometry width="60" height="40" as="geometry">
            <mxRectangle width="60" height="40" as="alternateBounds" />
          </mxGeometry>
        </mxCell>
        <mxCell id="TX7STuWcXEx8gcCeR0AW-69" value="1" style="shape=partialRectangle;html=1;whiteSpace=wrap;connectable=0;overflow=hidden;fillColor=none;top=0;left=0;bottom=0;right=0;pointerEvents=1;fontSize=18;" vertex="1" parent="TX7STuWcXEx8gcCeR0AW-67">
          <mxGeometry x="60" width="60" height="40" as="geometry">
            <mxRectangle width="60" height="40" as="alternateBounds" />
          </mxGeometry>
        </mxCell>
        <mxCell id="TX7STuWcXEx8gcCeR0AW-70" value="2" style="shape=partialRectangle;html=1;whiteSpace=wrap;connectable=0;overflow=hidden;fillColor=none;top=0;left=0;bottom=0;right=0;pointerEvents=1;fontSize=18;" vertex="1" parent="TX7STuWcXEx8gcCeR0AW-67">
          <mxGeometry x="120" width="60" height="40" as="geometry">
            <mxRectangle width="60" height="40" as="alternateBounds" />
          </mxGeometry>
        </mxCell>
        <mxCell id="TX7STuWcXEx8gcCeR0AW-71" value="3" style="shape=partialRectangle;html=1;whiteSpace=wrap;connectable=0;overflow=hidden;fillColor=none;top=0;left=0;bottom=0;right=0;pointerEvents=1;fontSize=18;" vertex="1" parent="TX7STuWcXEx8gcCeR0AW-67">
          <mxGeometry x="180" width="60" height="40" as="geometry">
            <mxRectangle width="60" height="40" as="alternateBounds" />
          </mxGeometry>
        </mxCell>
        <mxCell id="TX7STuWcXEx8gcCeR0AW-72" value="4" style="shape=partialRectangle;html=1;whiteSpace=wrap;connectable=0;overflow=hidden;fillColor=none;top=0;left=0;bottom=0;right=0;pointerEvents=1;fontSize=18;" vertex="1" parent="TX7STuWcXEx8gcCeR0AW-67">
          <mxGeometry x="240" width="60" height="40" as="geometry">
            <mxRectangle width="60" height="40" as="alternateBounds" />
          </mxGeometry>
        </mxCell>
        <mxCell id="TX7STuWcXEx8gcCeR0AW-78" value="5" style="shape=partialRectangle;html=1;whiteSpace=wrap;connectable=0;overflow=hidden;fillColor=none;top=0;left=0;bottom=0;right=0;pointerEvents=1;fontSize=18;" vertex="1" parent="TX7STuWcXEx8gcCeR0AW-67">
          <mxGeometry x="300" width="60" height="40" as="geometry">
            <mxRectangle width="60" height="40" as="alternateBounds" />
          </mxGeometry>
        </mxCell>
        <mxCell id="TX7STuWcXEx8gcCeR0AW-73" value="&lt;span&gt;entry1&lt;/span&gt;" style="rounded=0;whiteSpace=wrap;html=1;fontSize=18;fillColor=#FFCC99;" vertex="1" parent="1">
          <mxGeometry x="270" y="1600" width="60" height="29" as="geometry" />
        </mxCell>
        <mxCell id="TX7STuWcXEx8gcCeR0AW-74" value="&lt;span&gt;entry3&lt;/span&gt;" style="rounded=0;whiteSpace=wrap;html=1;fontSize=18;fillColor=#FFCC99;" vertex="1" parent="1">
          <mxGeometry x="510" y="1602" width="60" height="29" as="geometry" />
        </mxCell>
        <mxCell id="TX7STuWcXEx8gcCeR0AW-75" value="&lt;span&gt;entry2&lt;/span&gt;" style="rounded=0;whiteSpace=wrap;html=1;fontSize=18;fillColor=#FFCC99;" vertex="1" parent="1">
          <mxGeometry x="270" y="1629" width="60" height="29" as="geometry" />
        </mxCell>
        <mxCell id="TX7STuWcXEx8gcCeR0AW-76" value="&lt;span&gt;entry4&lt;/span&gt;" style="rounded=0;whiteSpace=wrap;html=1;fontSize=18;fillColor=#FFCC99;" vertex="1" parent="1">
          <mxGeometry x="390" y="1602" width="62.07" height="30" as="geometry" />
        </mxCell>
        <mxCell id="TX7STuWcXEx8gcCeR0AW-79" value="" style="endArrow=classic;html=1;rounded=0;fontSize=15;entryX=0.5;entryY=0;entryDx=0;entryDy=0;" edge="1" parent="1" target="TX7STuWcXEx8gcCeR0AW-73">
          <mxGeometry width="50" height="50" relative="1" as="geometry">
            <mxPoint x="300" y="1580" as="sourcePoint" />
            <mxPoint x="320" y="1420" as="targetPoint" />
          </mxGeometry>
        </mxCell>
        <mxCell id="TX7STuWcXEx8gcCeR0AW-81" value="" style="endArrow=classic;html=1;rounded=0;fontSize=15;entryX=0.5;entryY=0;entryDx=0;entryDy=0;" edge="1" parent="1">
          <mxGeometry width="50" height="50" relative="1" as="geometry">
            <mxPoint x="420.54" y="1580" as="sourcePoint" />
            <mxPoint x="420.54" y="1600" as="targetPoint" />
          </mxGeometry>
        </mxCell>
        <mxCell id="TX7STuWcXEx8gcCeR0AW-82" value="" style="endArrow=classic;html=1;rounded=0;fontSize=15;entryX=0.5;entryY=0;entryDx=0;entryDy=0;" edge="1" parent="1">
          <mxGeometry width="50" height="50" relative="1" as="geometry">
            <mxPoint x="542" y="1580" as="sourcePoint" />
            <mxPoint x="542" y="1600" as="targetPoint" />
          </mxGeometry>
        </mxCell>
      </root>
    </mxGraphModel>
  </diagram>
</mxfile>
